<svg width="64" height="64" viewBox="0 0 64 64" fill="none" xmlns="http://www.w3.org/2000/svg">
<path d="M17.3451 5.33203H46.6784C47.5176 5.33203 48.308 5.7272 48.8118 6.3987L56.0118 15.9987V55.9987C56.0118 57.4715 54.8179 58.6654 53.3451 58.6654H10.6784C9.20564 58.6654 8.01172 57.4715 8.01172 55.9987V15.9987L15.2117 6.3987C15.7153 5.7272 16.5057 5.33203 17.3451 5.33203ZM50.6784 21.332H13.3451V53.332H50.6784V21.332ZM49.3451 15.9987L45.3451 10.6654H18.6784L14.6784 15.9987H49.3451ZM24.0117 26.6654V31.9987C24.0117 36.4171 27.5934 39.9987 32.0118 39.9987C36.4299 39.9987 40.0118 36.4171 40.0118 31.9987V26.6654H45.3451V31.9987C45.3451 39.3624 39.3755 45.332 32.0118 45.332C24.6479 45.332 18.6784 39.3624 18.6784 31.9987V26.6654H24.0117Z" fill="white"/>
</svg>
