<svg width="54" height="48" viewBox="0 0 54 48" fill="none" xmlns="http://www.w3.org/2000/svg">
<path d="M0.347656 2.66667C0.347656 1.19392 1.54158 0 3.01432 0H51.0144C52.4872 0 53.681 1.19392 53.681 2.66667V17.3333C49.9992 17.3333 47.0144 20.3181 47.0144 24C47.0144 27.6819 49.9992 30.6667 53.681 30.6667V45.3333C53.681 46.8061 52.4872 48 51.0144 48H3.01432C1.54158 48 0.347656 46.8061 0.347656 45.3333V2.66667ZM16.5753 42.6667C17.1244 41.1131 18.606 40 20.3477 40C22.0893 40 23.5709 41.1131 24.12 42.6667H48.3477V34.7525C44.3965 32.7891 41.681 28.7117 41.681 24C41.681 19.2883 44.3965 15.211 48.3477 13.2474V5.33333H24.12C23.5709 6.88693 22.0893 8 20.3477 8C18.606 8 17.1244 6.88693 16.5753 5.33333H5.68099V42.6667H16.5753ZM20.3477 21.3333C18.1385 21.3333 16.3477 19.5424 16.3477 17.3333C16.3477 15.1242 18.1385 13.3333 20.3477 13.3333C22.5568 13.3333 24.3477 15.1242 24.3477 17.3333C24.3477 19.5424 22.5568 21.3333 20.3477 21.3333ZM20.3477 34.6667C18.1385 34.6667 16.3477 32.8757 16.3477 30.6667C16.3477 28.4576 18.1385 26.6667 20.3477 26.6667C22.5568 26.6667 24.3477 28.4576 24.3477 30.6667C24.3477 32.8757 22.5568 34.6667 20.3477 34.6667Z" fill="white"/>
</svg>
