<svg width="39" height="45" viewBox="0 0 39 45" fill="none" xmlns="http://www.w3.org/2000/svg">
<path d="M19.5018 33.542C27.5896 33.542 34.662 37.0203 38.5092 42.209L34.4414 44.1332C31.3104 40.4225 25.7898 37.9587 19.5018 37.9587C13.2137 37.9587 7.69299 40.4225 4.56217 44.1332L0.496094 42.207C4.34345 37.0195 11.415 33.542 19.5018 33.542ZM19.5018 0.416992C25.5999 0.416992 30.5435 5.36052 30.5435 11.4587V18.0837C30.5435 24.0214 25.8567 28.8643 19.9808 29.1152L19.5018 29.1253C13.4036 29.1253 8.46009 24.1817 8.46009 18.0837V11.4587C8.46009 5.521 13.1469 0.677973 19.0228 0.427195L19.5018 0.416992ZM19.5018 4.83366C15.9736 4.83366 13.0895 7.59169 12.888 11.0694L12.8768 11.4587V18.0837C12.8768 21.7426 15.8428 24.7087 19.5018 24.7087C23.0301 24.7087 25.9139 21.9507 26.1156 18.473L26.1268 18.0837V11.4587C26.1268 7.79978 23.1606 4.83366 19.5018 4.83366Z" fill="#1A2747"/>
</svg>
