<svg width="51" height="50" viewBox="0 0 51 50" fill="none" xmlns="http://www.w3.org/2000/svg">
<path d="M10.8799 40C11.9095 37.087 14.6876 35 17.9531 35C21.2186 35 23.9969 37.087 25.0264 40H50.4531V45H25.0264C23.9969 47.913 21.2186 50 17.9531 50C14.6876 50 11.9095 47.913 10.8799 45H0.453125V40H10.8799ZM25.8799 22.5C26.9094 19.587 29.6876 17.5 32.9531 17.5C36.2186 17.5 38.9969 19.587 40.0264 22.5H50.4531V27.5H40.0264C38.9969 30.413 36.2186 32.5 32.9531 32.5C29.6876 32.5 26.9094 30.413 25.8799 27.5H0.453125V22.5H25.8799ZM10.8799 5C11.9095 2.08703 14.6876 0 17.9531 0C21.2186 0 23.9969 2.08703 25.0264 5H50.4531V10H25.0264C23.9969 12.913 21.2186 15 17.9531 15C14.6876 15 11.9095 12.913 10.8799 10H0.453125V5H10.8799ZM17.9531 10C19.3338 10 20.4531 8.8807 20.4531 7.5C20.4531 6.1193 19.3338 5 17.9531 5C16.5724 5 15.4531 6.1193 15.4531 7.5C15.4531 8.8807 16.5724 10 17.9531 10ZM32.9531 27.5C34.3339 27.5 35.4531 26.3807 35.4531 25C35.4531 23.6193 34.3339 22.5 32.9531 22.5C31.5724 22.5 30.4531 23.6193 30.4531 25C30.4531 26.3807 31.5724 27.5 32.9531 27.5ZM17.9531 45C19.3338 45 20.4531 43.8807 20.4531 42.5C20.4531 41.1193 19.3338 40 17.9531 40C16.5724 40 15.4531 41.1193 15.4531 42.5C15.4531 43.8807 16.5724 45 17.9531 45Z" fill="#1A2747"/>
</svg>
